<?xml version="1.0" encoding="utf-8"?>
<!-- Generator: Adobe Illustrator 24.3.0, SVG Export Plug-In . SVG Version: 6.00 Build 0)  -->
<svg version="1.1" id="圖層_1" xmlns="http://www.w3.org/2000/svg" xmlns:xlink="http://www.w3.org/1999/xlink" x="0px" y="0px"
	 viewBox="0 0 200 200" style="enable-background:new 0 0 200 200;" xml:space="preserve">
<style type="text/css">
	.st0{fill:#FFFFFF;}
</style>
<g transform="rotate(0 50 50)">
	<path class="st0" d="M100,52L100,52c2.8,0,5,2.6,5,5.8v12.5c0,3.2-2.2,5.8-5,5.8l0,0c-2.8,0-5-2.6-5-5.8V57.8
		C95,54.6,97.2,52,100,52z	">
<animate  accumulate="none" additive="replace" attributeName="opacity" begin="-0.8888888888888888s" calcMode="linear" dur="1s" fill="remove" keyTimes="0;1" repeatCount="indefinite" restart="always" values="1;0">
			</animate>
	</path>
</g>
<g transform="rotate(40 50 50)">
	<path class="st0" d="M120.4,8.2L120.4,8.2c2.8,0,5,2.6,5,5.8l0,12.5c0,3.2-2.2,5.8-5,5.8l0,0c-2.8,0-5-2.6-5-5.8l0-12.5
		C115.4,10.7,117.7,8.2,120.4,8.2z	">
<animate  accumulate="none" additive="replace" attributeName="opacity" begin="-0.7777777777777778s" calcMode="linear" dur="1s" fill="remove" keyTimes="0;1" repeatCount="indefinite" restart="always" values="1;0">
			</animate>
	</path>
</g>
<g transform="rotate(80 50 50)">
	<path class="st0" d="M107.9-38.6L107.9-38.6c2.8,0,5,2.6,5,5.8v12.5c0,3.2-2.2,5.8-5,5.8l0,0c-2.8,0-5-2.6-5-5.8l0-12.5
		C102.9-36,105.2-38.6,107.9-38.6z	">
<animate  accumulate="none" additive="replace" attributeName="opacity" begin="-0.6666666666666666s" calcMode="linear" dur="1s" fill="remove" keyTimes="0;1" repeatCount="indefinite" restart="always" values="1;0">
			</animate>
	</path>
</g>
<g transform="rotate(120 50 50)">
	<path class="st0" d="M68.3-66.3L68.3-66.3c2.8,0,5,2.6,5,5.8v12.5c0,3.2-2.2,5.8-5,5.8l0,0c-2.8,0-5-2.6-5-5.8v-12.5
		C63.3-63.7,65.5-66.3,68.3-66.3z	">
<animate  accumulate="none" additive="replace" attributeName="opacity" begin="-0.5555555555555556s" calcMode="linear" dur="1s" fill="remove" keyTimes="0;1" repeatCount="indefinite" restart="always" values="1;0">
			</animate>
	</path>
</g>
<g transform="rotate(160 50 50)">
	<path class="st0" d="M20.1-62.1L20.1-62.1c2.8,0,5,2.6,5,5.8l0,12.5c0,3.2-2.2,5.8-5,5.8l0,0c-2.8,0-5-2.6-5-5.8l0-12.5
		C15.1-59.5,17.4-62.1,20.1-62.1z	">
<animate  accumulate="none" additive="replace" attributeName="opacity" begin="-0.4444444444444444s" calcMode="linear" dur="1s" fill="remove" keyTimes="0;1" repeatCount="indefinite" restart="always" values="1;0">
			</animate>
	</path>
</g>
<g transform="rotate(200 50 50)">
	<path class="st0" d="M-14.1-27.9L-14.1-27.9c2.8,0,5,2.6,5,5.8l0,12.5c0,3.2-2.2,5.8-5,5.8l0,0c-2.8,0-5-2.6-5-5.8l0-12.5
		C-19.1-25.3-16.8-27.9-14.1-27.9z	">
<animate  accumulate="none" additive="replace" attributeName="opacity" begin="-0.3333333333333333s" calcMode="linear" dur="1s" fill="remove" keyTimes="0;1" repeatCount="indefinite" restart="always" values="1;0">
			</animate>
	</path>
</g>
<g transform="rotate(240 50 50)">
	<path class="st0" d="M-18.3,20.3L-18.3,20.3c2.8,0,5,2.6,5,5.8l0,12.5c0,3.2-2.2,5.8-5,5.8l0,0c-2.8,0-5-2.6-5-5.8l0-12.5
		C-23.3,22.9-21.1,20.3-18.3,20.3z	">
<animate  accumulate="none" additive="replace" attributeName="opacity" begin="-0.2222222222222222s" calcMode="linear" dur="1s" fill="remove" keyTimes="0;1" repeatCount="indefinite" restart="always" values="1;0">
			</animate>
	</path>
</g>
<g transform="rotate(280 50 50)">
	<path class="st0" d="M9.4,59.9L9.4,59.9c2.8,0,5,2.6,5,5.8l0,12.5c0,3.2-2.2,5.8-5,5.8l0,0c-2.8,0-5-2.6-5-5.8l0-12.5
		C4.4,62.5,6.7,59.9,9.4,59.9z	">
<animate  accumulate="none" additive="replace" attributeName="opacity" begin="-0.1111111111111111s" calcMode="linear" dur="1s" fill="remove" keyTimes="0;1" repeatCount="indefinite" restart="always" values="1;0">
			</animate>
	</path>
</g>
<g transform="rotate(320 50 50)">
	<path class="st0" d="M56.2,72.4L56.2,72.4c2.8,0,5,2.6,5,5.8l0,12.5c0,3.2-2.2,5.8-5,5.8l0,0c-2.8,0-5-2.6-5-5.8l0-12.5
		C51.2,75,53.4,72.4,56.2,72.4z	">
<animate  accumulate="none" additive="replace" attributeName="opacity" begin="0s" calcMode="linear" dur="1s" fill="remove" keyTimes="0;1" repeatCount="indefinite" restart="always" values="1;0">
			</animate>
	</path>
</g>
</svg>
