<?xml version="1.0" encoding="utf-8"?>
<!-- Generator: Adobe Illustrator 24.3.0, SVG Export Plug-In . SVG Version: 6.00 Build 0)  -->
<svg version="1.1" id="Layer_1" xmlns="http://www.w3.org/2000/svg" xmlns:xlink="http://www.w3.org/1999/xlink" x="0px" y="0px"
	 viewBox="0 0 32 32" style="enable-background:new 0 0 32 32;" xml:space="preserve">
<style type="text/css">
	.st0{fill:#FFFFFF;}
</style>
<g id="fax">
	<path class="st0" d="M9,23.9v4.8c0,0.3,0.2,0.5,0.5,0.5h13.1c0.3,0,0.5-0.2,0.5-0.5v-4.8v-3c0-0.3-0.2-0.5-0.5-0.5H9.5
		c-0.3,0-0.5,0.2-0.5,0.5V23.9z M10.8,22.1h10.5v1.7H10.8V22.1z M10.8,25.6h10.5v1.7H10.8V25.6z"/>
	<polygon class="st0" points="23,8.1 23,2.9 9,2.9 9,8.1 9,11.6 23,11.6 	"/>
	<path class="st0" d="M26.5,8.1h-1.8v3.5v1.8H7.3v-1.8V8.1H5.5C3.6,8.1,2,9.7,2,11.6v8.8c0,1.9,1.6,3.5,3.5,3.5h1.8v-3.5v-1.8h17.5
		v1.8v3.5h1.8c1.9,0,3.5-1.6,3.5-3.5v-8.7C30,9.7,28.4,8.1,26.5,8.1z"/>
</g>
</svg>
